<svg width="1037" height="194" viewBox="0 0 1037 194" fill="none" xmlns="http://www.w3.org/2000/svg">
<path d="M0 194H1034V3.5L923 44L836.5 63L747 92.5L649.5 125L562.5 141L466.5 150.5L383.5 146H294H200L107.5 166.5L19 184.5L0 189.5V194Z" fill="#0042FC"/>
<ellipse cx="20.0453" cy="185.009" rx="3.04528" ry="3.0087" fill="#96A3FE"/>
<ellipse cx="201.045" cy="146.009" rx="3.04528" ry="3.0087" fill="#96A3FE"/>
<ellipse cx="112.045" cy="165.009" rx="3.04528" ry="3.0087" fill="#96A3FE"/>
<ellipse cx="289.045" cy="146.009" rx="3.04528" ry="3.0087" fill="#96A3FE"/>
<ellipse cx="465.045" cy="152.009" rx="3.04528" ry="3.0087" fill="#96A3FE"/>
<ellipse cx="385.045" cy="146.009" rx="3.04528" ry="3.0087" fill="#96A3FE"/>
<ellipse cx="653.045" cy="125.009" rx="3.04528" ry="3.0087" fill="#96A3FE"/>
<ellipse cx="562.045" cy="140.009" rx="3.04528" ry="3.0087" fill="#96A3FE"/>
<ellipse cx="746.045" cy="93.0087" rx="3.04528" ry="3.0087" fill="#96A3FE"/>
<ellipse cx="837.045" cy="62.0087" rx="3.04528" ry="3.0087" fill="#96A3FE"/>
<ellipse cx="925.045" cy="44.0087" rx="3.04528" ry="3.0087" fill="#96A3FE"/>
<ellipse cx="1033.05" cy="3.0087" rx="3.04528" ry="3.0087" fill="#96A3FE"/>
</svg>
