<svg width="592" height="210" viewBox="0 0 592 210" fill="none" xmlns="http://www.w3.org/2000/svg">
<path d="M0 199.818H36.5101L73.0202 191.55L109.53 175.015H146.04L182.551 158.48L219.061 141.944L255.571 82.6309L292.081 97.6965L328.591 95.2774L365.101 98.684L399.83 53L436.83 68L460.83 53L481.83 28H532.83L583.83 16" stroke="#FC7717" stroke-width="2"/>
<circle cx="37.2863" cy="200" r="3" fill="#FC7717"/>
<circle cx="72.3472" cy="192" r="3" fill="#FC7717"/>
<circle cx="110.457" cy="175" r="3" fill="#FC7717"/>
<circle cx="147.043" cy="175" r="3" fill="#FC7717"/>
<circle cx="218.69" cy="142" r="3" fill="#FC7717"/>
<circle cx="256.039" cy="83" r="3" fill="#FC7717"/>
<circle cx="292.625" cy="98" r="3" fill="#FC7717"/>
<circle cx="329.209" cy="95" r="3" fill="#FC7717"/>
<circle cx="364.272" cy="98" r="3" fill="#FC7717"/>
<circle cx="400.83" cy="53" r="3" fill="#FC7717"/>
<circle cx="437.83" cy="67" r="3" fill="#FC7717"/>
<circle cx="462.83" cy="51" r="3" fill="#FC7717"/>
<circle cx="481.83" cy="28" r="3" fill="#FC7717"/>
<circle cx="583.83" cy="16" r="3" fill="#FC7717"/>
<path d="M0.359985 194L37.235 191.926L74.11 178.654L110.985 178.239L147.86 162.893L184.735 145.473L221.61 152.109L258.485 115.611L295.36 135.519L332.235 112.293L369.11 108.145L405.985 82.43L442.86 94.0433L479.735 55.8855L516.61 64.1807L553.485 55.8855L590.36 31" stroke="#0042FC" stroke-width="2"/>
<circle cx="37.5787" cy="191" r="3" fill="#0042FC"/>
<circle cx="73.7083" cy="179" r="3" fill="#0042FC"/>
<circle cx="111.375" cy="179" r="3" fill="#0042FC"/>
<circle cx="184.403" cy="146" r="3" fill="#0042FC"/>
<circle cx="221.302" cy="152" r="3" fill="#0042FC"/>
<circle cx="258.2" cy="116" r="3" fill="#0042FC"/>
<circle cx="295.098" cy="136" r="3" fill="#0042FC"/>
<circle cx="331.997" cy="113" r="3" fill="#0042FC"/>
<circle cx="369.664" cy="108" r="3" fill="#0042FC"/>
<circle cx="405.025" cy="83" r="3" fill="#0042FC"/>
<circle cx="441.923" cy="94" r="3" fill="#0042FC"/>
<circle cx="479.59" cy="57" r="3" fill="#0042FC"/>
<circle cx="515.72" cy="64" r="3" fill="#0042FC"/>
<circle cx="552.618" cy="56" r="3" fill="#0042FC"/>
<circle cx="588.748" cy="32" r="3" fill="#0042FC"/>
</svg>
