<svg width="1008" height="196" viewBox="0 0 1008 196" fill="none" xmlns="http://www.w3.org/2000/svg">
<g opacity="0.6">
<ellipse opacity="0.5" cx="21.5329" cy="54.344" rx="3.50806" ry="3.48998" fill="#0042FC"/>
<ellipse opacity="0.5" cx="17.5415" cy="135.965" rx="3.50806" ry="3.48998" fill="#0042FC"/>
<ellipse opacity="0.5" cx="146.84" cy="3.48998" rx="3.50806" ry="3.48998" fill="#0042FC"/>
<ellipse opacity="0.5" cx="93.7183" cy="93.3903" rx="3.50806" ry="3.48998" fill="#0042FC"/>
<ellipse opacity="0.5" cx="227.023" cy="47.3641" rx="3.50806" ry="3.48998" fill="#0042FC"/>
<ellipse opacity="0.5" cx="244.064" cy="32.407" rx="3.50806" ry="3.48998" fill="#0042FC"/>
<ellipse opacity="0.5" cx="277.14" cy="17.4499" rx="3.50806" ry="3.48998" fill="#0042FC"/>
<ellipse opacity="0.5" cx="49.6155" cy="161.891" rx="3.50806" ry="3.48998" fill="#0042FC"/>
<ellipse opacity="0.5" cx="62.6466" cy="24.4299" rx="3.50806" ry="3.48998" fill="#0042FC"/>
<ellipse opacity="0.5" cx="125.792" cy="64.3154" rx="3.50806" ry="3.48998" fill="#0042FC"/>
<ellipse opacity="0.5" cx="790.977" cy="92.1633" rx="3.50806" ry="3.48998" fill="#0042FC"/>
<ellipse opacity="0.5" cx="277.138" cy="181.542" rx="3.50806" ry="3.48998" fill="#0042FC"/>
<ellipse opacity="0.5" cx="292.172" cy="135.965" rx="3.50806" ry="3.48998" fill="#0042FC"/>
<ellipse opacity="0.5" cx="184.925" cy="170.573" rx="3.50806" ry="3.48998" fill="#0042FC"/>
<ellipse opacity="0.5" cx="960.307" cy="46.3669" rx="3.50806" ry="3.48998" fill="#0042FC"/>
<ellipse opacity="0.5" rx="3.50703" ry="3.48895" transform="matrix(1.0003 0 0 -1.0003 568.589 44.4447)" fill="#0042FC"/>
<ellipse opacity="0.5" rx="3.50703" ry="3.48895" transform="matrix(1.0003 0 0 -1.0003 444.523 32.4791)" fill="#0042FC"/>
<ellipse opacity="0.5" rx="3.50703" ry="3.48895" transform="matrix(1.0003 0 0 -1.0003 587.853 192.51)" fill="#0042FC"/>
<ellipse opacity="0.5" rx="3.50703" ry="3.48895" transform="matrix(1.0003 0 0 -1.0003 534.73 137.034)" fill="#0042FC"/>
<ellipse opacity="0.5" rx="3.50703" ry="3.48895" transform="matrix(1.0003 0 0 -1.0003 925.146 163.665)" fill="#0042FC"/>
<ellipse opacity="0.5" rx="3.50703" ry="3.48895" transform="matrix(1.0003 0 0 -1.0003 718.153 166.729)" fill="#0042FC"/>
<ellipse opacity="0.5" rx="3.50703" ry="3.48895" transform="matrix(1.0003 0 0 -1.0003 718.153 14.5306)" fill="#0042FC"/>
<ellipse opacity="0.5" rx="3.50703" ry="3.48895" transform="matrix(1.0003 0 0 -1.0003 733.189 44.4447)" fill="#0042FC"/>
<ellipse opacity="0.5" rx="3.50703" ry="3.48895" transform="matrix(1.0003 0 0 -1.0003 625.942 25.4991)" fill="#0042FC"/>
<ellipse opacity="0.5" cx="361.487" cy="192.51" rx="3.50806" ry="3.48998" transform="rotate(-180 361.487 192.51)" fill="#0042FC"/>
<ellipse opacity="0.5" cx="414.608" cy="137.034" rx="3.50806" ry="3.48998" transform="rotate(-180 414.608 137.034)" fill="#0042FC"/>
<ellipse opacity="0.5" cx="349.458" cy="96.2238" rx="3.50806" ry="3.48998" transform="rotate(-180 349.458 96.2238)" fill="#0042FC"/>
<ellipse opacity="0.5" cx="387.545" cy="88.2468" rx="3.50806" ry="3.48998" transform="rotate(-180 387.545 88.2468)" fill="#0042FC"/>
<ellipse opacity="0.5" rx="3.50703" ry="3.48895" transform="matrix(1.0003 0 0 -1.0003 891.169 94.0312)" fill="#0042FC"/>
</g>
<ellipse cx="3.50806" cy="147.931" rx="3.50806" ry="3.48998" fill="#0042FC"/>
<ellipse cx="158.868" cy="72.2925" rx="3.50806" ry="3.48998" fill="#0042FC"/>
<ellipse rx="3.50703" ry="3.48895" transform="matrix(1.0003 0 0 -1.0003 674.033 67.3789)" fill="#0042FC"/>
<ellipse rx="3.50703" ry="3.48895" transform="matrix(1.0003 0 0 -1.0003 844.083 37.37)" fill="#0042FC"/>
<ellipse rx="3.50703" ry="3.48895" transform="matrix(1.0003 0 0 -1.0003 1004.13 7.36114)" fill="#0042FC"/>
<ellipse rx="3.50703" ry="3.48895" transform="matrix(1.0003 0 0 -1.0003 513.661 171.642)" fill="#0042FC"/>
<ellipse cx="323.399" cy="25.4991" rx="3.50806" ry="3.48998" transform="rotate(-180 323.399 25.4991)" fill="#0042FC"/>
</svg>
