<svg width="295" height="294" viewBox="0 0 295 294" fill="none" xmlns="http://www.w3.org/2000/svg">
<path d="M145.975 4.02706C145.975 3.48841 145.867 2.95528 145.656 2.45949C145.446 1.96369 145.137 1.51539 144.75 1.14133C144.362 0.767263 143.903 0.475099 143.4 0.282279C142.897 0.0894585 142.361 -6.82415e-05 141.822 0.0190338C109.865 1.15307 79.1478 12.6745 54.3274 32.8371C29.5071 52.9997 11.9364 80.7042 4.27847 111.752C-3.37942 142.799 -0.707011 175.496 11.8906 204.888C24.4883 234.28 46.3244 258.764 74.0893 274.629C101.854 290.493 134.034 296.874 165.752 292.804C197.47 288.734 226.996 274.434 249.855 252.073C272.715 229.712 287.661 200.508 292.43 168.888C297.198 137.267 291.528 104.954 276.279 76.8467C276.022 76.3732 275.672 75.9563 275.251 75.6209C274.829 75.2856 274.344 75.0385 273.825 74.8945C273.306 74.7505 272.764 74.7126 272.23 74.783C271.695 74.8533 271.181 75.0305 270.717 75.304L230.73 98.8707C229.845 99.3923 229.194 100.233 228.911 101.221C228.628 102.208 228.734 103.267 229.209 104.178C238.451 121.929 241.697 142.196 238.461 161.946C235.224 181.696 225.679 199.867 211.253 213.739C196.828 227.612 178.299 236.44 158.437 238.903C138.576 241.365 118.451 237.33 101.075 227.401C83.698 217.472 70.0038 202.183 62.0413 183.822C54.0788 165.461 52.2762 145.015 56.9032 125.544C61.5303 106.073 72.3382 88.6238 87.7096 75.8076C103.081 62.9915 122.189 55.4976 142.175 54.4473C143.201 54.3934 144.167 53.948 144.874 53.2028C145.581 52.4576 145.975 51.4695 145.975 50.4423V4.02706Z" fill="#7A59D8"/>
<path d="M269.653 73.4664C270.117 73.1929 270.522 72.8287 270.842 72.3956C271.162 71.9625 271.392 71.4693 271.517 70.9455C271.643 70.4217 271.661 69.878 271.572 69.3468C271.483 68.8156 271.287 68.3078 270.998 67.8537C258.181 47.771 240.678 31.1029 219.992 19.2835C199.307 7.46406 176.06 0.847306 152.251 0.00252228C151.713 -0.0165778 151.176 0.0729563 150.673 0.265777C150.17 0.458598 149.711 0.750762 149.324 1.12483C148.936 1.49889 148.628 1.94719 148.417 2.44299C148.207 2.93878 148.098 3.4719 148.098 4.01054V50.4424C148.098 51.4696 148.493 52.4576 149.2 53.2028C149.907 53.948 150.873 54.3935 151.899 54.4474C166.354 55.207 180.43 59.3435 192.999 66.525C205.567 73.7065 216.278 83.7332 224.272 95.8011C224.839 96.6575 225.713 97.2636 226.714 97.4944C227.715 97.7251 228.767 97.563 229.652 97.0415L269.653 73.4664Z" fill="#5020D8"/>
</svg>
